# xmcd CD database file
#
# Track frame offsets:
#	150
#	23610
#	45022
#
# Disc length: 945 seconds
#
# Revision: 4
# Processed by: cddbd v1.5.2PL0 Copyright (c) Steve Scherf et al.
# Submitted via: CDex 1.50
#
DISCID=1003af03
DTITLE=Alyson Williams - I Need Your Lovin'  (Maxi)
DYEAR=1989
DGENRE=Dance
TTITLE0=I Need Your Lovin' (Extended Remix)
TTITLE1=Make You Mine Tonight
TTITLE2=My Love Is So Raw (Baby Love Mix)
EXTD=YEAR: 1989
EXTT0=
EXTT1=
EXTT2=
PLAYORDER=
